<?xml version="1.0" encoding="UTF-8"?>
<svg id="Camada_1" data-name="Camada 1" xmlns="http://www.w3.org/2000/svg" version="1.1" viewBox="0 0 595.28 841.89">
  <defs>
    <style>
      .cls-1 {
        fill: #000;
      }

      .cls-1, .cls-2 {
        stroke-width: 0px;
      }

      .cls-2 {
        fill: #fff;
      }
    </style>
  </defs>
  <path class="cls-2" d="M34.35,418.95c0-87.52,0-175.04,0-262.57,66.61,0,133.22,0,199.84,0-.6.41-1.18,1.12-1.82,1.19-22,2.22-40.97,11.37-57.25,25.92-14.89,13.32-25.37,29.71-30.63,49.1-1.94,7.15-3.07,14.52-4.76,22.74,29.11-13.75,55.07-7,80.4,7.31,19.65-37.64,44.82-69.32,86.29-85.6-1.45-1.21-2.49-2.28-3.73-3.07-9.86-6.27-20.22-11.47-31.63-14.32-4.62-1.15-9.26-2.18-13.9-3.27,101.25,0,202.5,0,303.75,0v338.44c-.36-.27-.96-.49-1.05-.83-2.11-7.87-3.73-15.9-6.37-23.58-1.97-5.73-5.24-11-8.3-17.22-15.49,27.79-40.48,37.56-69.22,41.15,3.71,21.07,4.63,41.61,1.88,62.16-2.74,20.52-9.35,39.8-20.59,57.72,8.18-.39,15.94-.77,23.41-2.43,15.38-3.41,29.3-9.97,41.63-20.1,16.81-13.81,28.22-30.99,34.36-51.75,1.58-5.34,2.83-10.78,4.24-16.17v161.73h-279.77c.44-.39.82-1.02,1.33-1.15,9.65-2.4,19.61-3.91,28.9-7.28,14.89-5.4,27.46-14.62,38.01-27.06-30.44-7.01-46.71-28.5-57.8-54.94-38.66,17.71-77.77,27.75-119.9,15.03-.05,1.02-.27,1.72-.09,2.3,4.52,14.8,11.59,28.3,22.14,39.61,14.34,15.37,31.69,25.94,52.52,30.32,4.66.98,9.28,2.11,13.92,3.17H34.35c0-80.87,0-161.73,0-242.6.95,3.99,1.84,8,2.86,11.98,5.7,22.21,16.59,41.16,34.2,56.27,9.11,7.82,19.4,13.26,30.55,18.43-4.39-31.08,9.97-53.87,31.35-73.62-30.43-30.1-53.36-63.67-56.84-109.09-6.4,6.37-12.01,11.64-17.25,17.23-11.03,11.79-17.64,25.95-21.62,41.44-1.14,4.45-2.17,8.93-3.25,13.4ZM207.79,529.06c-.24.21-.49.42-.73.64,9.49,6.28,18.67,13.11,28.55,18.71,17.26,9.78,35.88,15.55,55.66,18.35,16.41,2.32,32.67,2.26,48.73-.59,25.54-4.54,48.65-14.85,69.21-31.14,16.2-12.84,28.85-28.33,38.44-46.35,8.05-15.13,12.86-31.32,15.36-48.42,2.23-15.23,2.12-30.33-.57-45.19-5.22-28.78-17.49-54.29-37.34-76.24-12.89-14.26-27.74-25.59-44.6-34.48-17.73-9.35-36.53-15.6-56.61-16.75-12.99-.75-26.17-1.17-39.07.18-19.04,1.99-37.2,8.1-53.72,17.89-10.7,6.34-20.61,14.02-30.87,21.1,8.9-3.03,17.01-7.23,25.31-10.98,22.01-9.93,45.39-12.51,69.07-10.61,18.89,1.52,36.91,7.19,53.52,16.68,19.57,11.18,35.78,25.9,46.08,46.12,9.84,19.32,13.89,39.91,12.27,61.77-.97,13.02-3.1,25.63-7.19,37.98-9.82,29.69-27.16,53.85-53.5,70.96-18.02,11.7-37.47,20.09-59.19,22.43-15.2,1.64-30.33,1.77-45.18-2.06-11.32-2.92-22.43-6.64-33.64-10ZM350.22,323.69c-25.29-24.86-73.09-40.38-121.96-21.03-41.76,16.54-79.44,61.87-71.7,124.23,5.22,42.06,36.61,86.75,92.55,99.23,34.27,7.65,90.57-8.06,104.97-31.17-.52.12-1.08.11-1.47.37-24.51,16.27-51.33,22.63-80.18,16.51-28.44-6.03-49.77-22.47-62.69-48.64-9.47-19.17-11.3-39.63-6.74-60.5,5.66-25.86,19.36-46.81,39.98-63.22,15.03-11.96,32.21-19.44,51.15-22.45,11.26-1.79,22.66-2.2,33.88.72,7.67,1.99,15.3,4.09,22.21,5.95ZM148.61,455.72c-.71.37-1.87.69-2.65,1.42-11.26,10.56-21.56,21.82-27.65,36.36-5.35,12.77-6.73,25.73-3.9,39.34,2.88,13.86,9.63,25.75,17.91,36.82,7.46,9.98,16.5,18.39,27.82,24.06,17.34,8.69,35.59,12.44,54.88,9.6,10.99-1.61,22.05-3.26,32.75-6.14,15.84-4.28,30.54-11.45,44.39-20.5-72.44-11.16-121.7-49.22-143.54-120.97ZM413.65,291.32c.29-.81.87-1.96,1.1-3.18,2.36-12.04,4.48-23.96,3.21-36.49-1.97-19.42-9.97-35.05-25.23-47.18-10.34-8.22-22.18-13.27-34.72-16.75-20.21-5.61-39.92-4.32-59.13,4.56-20.63,9.53-36.56,24.55-49.99,42.39-9.25,12.28-16.87,25.58-22.45,40.12,65.89-33.46,128.06-29.63,187.21,16.53ZM468.67,481.74c16.28-.34,31.62-4.12,45.74-12.09,15.42-8.7,25.56-21.72,30.37-38.85,3.79-13.48,4.75-27.04,3.07-41.01-1.19-9.93-3.57-19.33-8.09-28.14-9.65-18.84-25.05-31.91-43.26-41.94-19.19-10.57-39.99-16.17-61.54-19.23-4.06-.58-8.21-.53-11.6-.73,52.11,51.28,70.36,110.84,45.31,182ZM222.79,278.17c-8.65-4.82-16.13-9.58-24.1-13.3-14.79-6.9-30.33-9.71-46.52-5.73-25.32,6.22-41.97,23.41-54.39,44.93-12.83,22.23-12.53,46.03-5.55,70.11,7.25,25,21.33,45.97,38.42,65.16,2.65,2.98,5.71,5.6,9.34,9.14-11.9-60.8,17.07-136.38,82.79-170.3ZM462.13,487.23c-34.23,64.98-87.12,98.27-163.15,95.36,5.78,10.23,10.61,20.07,16.63,29.11,7.95,11.95,19.03,20.4,32.74,25.16,15.84,5.5,31.76,4.46,47.66.43,18.53-4.7,34.75-13.54,46.85-28.56,15.1-18.75,22.08-40.96,23.65-64.54,1.27-19.05,1.02-38.28-4.37-56.97ZM427.21,283.61c42.15,6.56,80.46,20.47,108.84,54.42,12.95-37.89,2.53-84.28-34.4-112.94-27.33-21.21-58.38-27.34-92.75-19.25,21.73,22.65,24.34,49.06,18.3,77.76ZM259.55,339.65c6.17-1.34,11.84-3.29,17.6-3.68,25.12-1.7,47.21,4.74,63.81,25.02,13.32,16.26,17.34,34.84,12.82,55-3.89,17.32-13.24,31.51-27.37,42.59-20.17,15.81-42.72,20.81-67.69,15.86-10.88-2.16-20.11-7.84-29.57-14.17,11.95,21.81,44.36,43.76,83.64,38.2,29.65-4.19,67.22-26.95,72.6-77.11,2.82-26.26-8.13-62.06-43.08-81.76-28.39-16-61.64-13.18-82.77.06ZM322.86,423.86c.06-22.13-17.25-38.25-37.25-38.66-22.09-.45-38.84,16.68-39.1,37.24-.29,22.96,16.89,39.05,38.17,39.05,21.37,0,37.66-16.32,38.17-37.62ZM262.35,467.6c-8.66-4.85-15.6-9.64-21.16-16.58-11.74-14.68-15.13-34.67-6.97-51.75,8.95-18.74,32.43-31.31,56.48-26.61,24.78,4.84,43.41,23.3,47.09,47.51,6.79-23.4-6.4-59.68-40.51-70.58-33.88-10.82-68.76,6.87-78.48,40.44-10.73,37.01,11.19,69.46,43.54,77.58Z"/>
  <path class="cls-1" d="M257.17,156.38c4.63,1.09,9.28,2.11,13.9,3.27,11.41,2.85,21.77,8.05,31.63,14.32,1.23.78,2.28,1.86,3.73,3.07-41.47,16.28-66.64,47.96-86.29,85.6-25.33-14.31-51.29-21.06-80.4-7.31,1.7-8.23,2.82-15.6,4.76-22.74,5.26-19.39,15.74-35.78,30.63-49.1,16.27-14.56,35.24-23.7,57.25-25.92.64-.06,1.21-.78,1.82-1.19,7.66,0,15.32,0,22.98,0Z"/>
  <path class="cls-1" d="M34.35,418.95c1.08-4.47,2.1-8.95,3.25-13.4,3.98-15.49,10.59-29.66,21.62-41.44,5.24-5.6,10.84-10.86,17.25-17.23,3.48,45.42,26.4,78.98,56.84,109.09-21.38,19.75-35.74,42.54-31.35,73.62-11.16-5.17-21.44-10.6-30.55-18.43-17.61-15.12-28.5-34.06-34.2-56.27-1.02-3.97-1.91-7.98-2.86-11.98,0-7.99,0-15.97,0-23.96Z"/>
  <path class="cls-1" d="M260.17,685.51c-4.64-1.06-9.27-2.19-13.92-3.17-20.82-4.38-38.18-14.96-52.52-30.32-10.55-11.3-17.62-24.81-22.14-39.61-.18-.58.04-1.28.09-2.3,42.14,12.72,81.24,2.68,119.9-15.03,11.09,26.44,27.37,47.93,57.8,54.94-10.55,12.44-23.12,21.65-38.01,27.06-9.29,3.37-19.25,4.88-28.9,7.28-.51.13-.89.75-1.33,1.15h-20.98Z"/>
  <path class="cls-1" d="M560.92,523.77c-1.4,5.39-2.66,10.83-4.24,16.17-6.14,20.76-17.55,37.93-34.36,51.75-12.33,10.13-26.25,16.69-41.63,20.1-7.48,1.66-15.24,2.04-23.41,2.43,11.24-17.92,17.85-37.21,20.59-57.72,2.75-20.55,1.83-41.09-1.88-62.16,28.74-3.59,53.73-13.37,69.22-41.15,3.05,6.21,6.33,11.49,8.3,17.22,2.64,7.68,4.26,15.71,6.37,23.58.09.35.69.56,1.05.83v28.95Z"/>
  <path class="cls-1" d="M207.79,529.06c11.2,3.36,22.32,7.08,33.64,10,14.85,3.83,29.98,3.7,45.18,2.06,21.72-2.34,41.17-10.73,59.19-22.43,26.34-17.11,43.68-41.27,53.5-70.96,4.09-12.35,6.22-24.96,7.19-37.98,1.62-21.86-2.43-42.45-12.27-61.77-10.3-20.22-26.51-34.94-46.08-46.12-16.62-9.5-34.64-15.16-53.52-16.68-23.68-1.9-47.06.68-69.07,10.61-8.31,3.75-16.41,7.95-25.31,10.98,10.26-7.08,20.17-14.76,30.87-21.1,16.52-9.79,34.68-15.9,53.72-17.89,12.9-1.35,26.08-.92,39.07-.18,20.07,1.15,38.87,7.4,56.61,16.75,16.86,8.89,31.7,20.22,44.6,34.48,19.85,21.96,32.13,47.46,37.34,76.24,2.69,14.86,2.8,29.96.57,45.19-2.5,17.1-7.31,33.29-15.36,48.42-9.59,18.02-22.24,33.51-38.44,46.35-20.56,16.29-43.67,26.6-69.21,31.14-16.06,2.86-32.33,2.91-48.73.59-19.79-2.8-38.4-8.58-55.66-18.35-9.88-5.59-19.05-12.43-28.55-18.71.24-.21.49-.42.73-.64Z"/>
  <path class="cls-1" d="M350.22,323.69c-6.9-1.85-14.54-3.95-22.21-5.95-11.23-2.92-22.63-2.51-33.88-.72-18.94,3.02-36.13,10.49-51.15,22.45-20.62,16.41-34.32,37.36-39.98,63.22-4.57,20.87-2.73,41.33,6.74,60.5,12.93,26.17,34.26,42.6,62.69,48.64,28.85,6.12,55.67-.24,80.18-16.51.39-.26.95-.24,1.47-.37-14.4,23.11-70.7,38.82-104.97,31.17-55.93-12.48-87.32-57.17-92.55-99.23-7.75-62.37,29.94-107.7,71.7-124.23,48.86-19.35,96.67-3.83,121.96,21.03Z"/>
  <path class="cls-1" d="M148.61,455.72c21.85,71.75,71.1,109.81,143.54,120.97-13.85,9.05-28.55,16.22-44.39,20.5-10.69,2.89-21.76,4.53-32.75,6.14-19.28,2.83-37.54-.92-54.88-9.6-11.32-5.67-20.36-14.08-27.82-24.06-8.28-11.08-15.04-22.97-17.91-36.82-2.83-13.62-1.45-26.57,3.9-39.34,6.09-14.55,16.39-25.8,27.65-36.36.78-.73,1.94-1.05,2.65-1.42Z"/>
  <path class="cls-1" d="M413.65,291.32c-59.15-46.16-121.32-49.99-187.21-16.53,5.58-14.53,13.2-27.83,22.45-40.12,13.44-17.84,29.36-32.85,49.99-42.39,19.21-8.88,38.92-10.17,59.13-4.56,12.54,3.48,24.38,8.53,34.72,16.75,15.26,12.13,23.27,27.76,25.23,47.18,1.27,12.53-.86,24.45-3.21,36.49-.24,1.22-.82,2.38-1.1,3.18Z"/>
  <path class="cls-1" d="M468.67,481.74c25.05-71.15,6.8-130.71-45.31-182,3.39.2,7.54.15,11.6.73,21.55,3.06,42.36,8.66,61.54,19.23,18.21,10.04,33.61,23.11,43.26,41.94,4.51,8.81,6.89,18.22,8.09,28.14,1.68,13.97.71,27.53-3.07,41.01-4.81,17.13-14.95,30.14-30.37,38.85-14.12,7.97-29.47,11.75-45.74,12.09Z"/>
  <path class="cls-1" d="M222.79,278.17c-65.72,33.92-94.69,109.51-82.79,170.3-3.64-3.54-6.69-6.16-9.34-9.14-17.08-19.19-31.17-40.16-38.42-65.16-6.98-24.09-7.28-47.88,5.55-70.11,12.42-21.52,29.06-38.71,54.39-44.93,16.19-3.97,31.73-1.17,46.52,5.73,7.97,3.72,15.45,8.48,24.1,13.3Z"/>
  <path class="cls-1" d="M462.13,487.23c5.39,18.69,5.64,37.92,4.37,56.97-1.57,23.57-8.55,45.78-23.65,64.54-12.1,15.02-28.32,23.86-46.85,28.56-15.9,4.03-31.82,5.07-47.66-.43-13.71-4.76-24.79-13.21-32.74-25.16-6.02-9.05-10.85-18.88-16.63-29.11,76.03,2.91,128.92-30.39,163.15-95.36Z"/>
  <path class="cls-1" d="M427.21,283.61c6.04-28.7,3.43-55.12-18.3-77.76,34.36-8.1,65.42-1.96,92.75,19.25,36.92,28.65,47.34,75.05,34.4,112.94-28.39-33.95-66.7-47.86-108.84-54.42Z"/>
  <path class="cls-1" d="M259.55,339.65c21.13-13.24,54.38-16.07,82.77-.06,34.95,19.7,45.9,55.5,43.08,81.76-5.38,50.16-42.95,72.92-72.6,77.11-39.28,5.55-71.69-16.4-83.64-38.2,9.46,6.33,18.69,12.01,29.57,14.17,24.97,4.96,47.52-.05,67.69-15.86,14.13-11.08,23.49-25.26,27.37-42.59,4.53-20.16.5-38.74-12.82-55-16.61-20.28-38.7-26.72-63.81-25.02-5.77.39-11.43,2.35-17.6,3.68Z"/>
  <path class="cls-1" d="M322.86,423.86c-.51,21.3-16.8,37.62-38.17,37.62-21.28,0-38.47-16.09-38.17-39.05.26-20.56,17-37.69,39.1-37.24,20,.41,37.3,16.53,37.25,38.66Z"/>
  <path class="cls-1" d="M262.35,467.6c-32.36-8.12-54.27-40.56-43.54-77.58,9.73-33.56,44.61-51.26,78.48-40.44,34.11,10.9,47.3,47.18,40.51,70.58-3.69-24.21-22.31-42.67-47.09-47.51-24.05-4.7-47.53,7.87-56.48,26.61-8.16,17.08-4.77,37.07,6.97,51.75,5.56,6.95,12.49,11.73,21.16,16.58Z"/>
</svg>