<svg width="162" height="55" viewBox="0 0 162 55" fill="none" xmlns="http://www.w3.org/2000/svg">
<path fill-rule="evenodd" clip-rule="evenodd" d="M61.5318 34.2628C59.3891 34.2628 57.2812 33.826 55.229 32.9455C54.2064 32.5087 53.2603 32.0025 52.3976 31.434C51.5281 30.8586 50.742 30.2207 50.0393 29.5205C49.3437 28.8202 48.7037 28.0437 48.1263 27.177C47.5488 26.3173 47.041 25.3813 46.5888 24.3691C46.1436 23.3499 45.8027 22.3169 45.5801 21.2561C45.3575 20.1953 45.2462 19.1137 45.2462 18.0183C45.2462 16.9228 45.3505 15.8343 45.5662 14.7874C45.7749 13.7405 46.1019 12.7282 46.5262 11.7576C46.9575 10.78 47.4584 9.86481 48.0358 9.00509C48.6202 8.14537 49.2741 7.34112 50.0185 6.59233C50.7489 5.84355 51.4933 5.19876 52.2446 4.6649C53.0029 4.11718 53.7681 3.68039 54.5333 3.35453C55.2916 3.0356 55.9664 2.7652 56.5786 2.55721C57.1978 2.34921 57.7543 2.18975 58.2482 2.08575C58.7352 1.98868 59.2569 1.91242 59.8065 1.85695C60.363 1.80842 60.9404 1.78069 61.5318 1.78069H62.7005V5.25422H61.5318C59.7161 5.25422 58.0534 5.57315 56.5438 6.21101C55.0342 6.84886 53.6638 7.80565 52.4394 9.09522C51.2081 10.3779 50.2898 11.7714 49.6776 13.2551C49.0724 14.7389 48.7663 16.3335 48.7663 18.0252C48.7663 19.8556 49.0515 21.4918 49.615 22.9339C50.1715 24.3691 51.0133 25.624 52.1403 26.6917C53.2742 27.7802 54.4777 28.6538 55.7438 29.3194C56.843 29.8949 57.9908 30.3178 59.1874 30.5743V9.10216H62.7144V34.2628H61.5318Z" fill="#131A22"/>
<path fill-rule="evenodd" clip-rule="evenodd" d="M39.4861 9.64988V7.36192C39.4861 6.7102 39.2774 6.13474 38.853 5.62862C38.6513 5.39289 38.4147 5.21263 38.1295 5.09476C37.8304 4.96996 37.4756 4.90756 37.0721 4.90756C36.453 4.90756 35.9034 5.11556 35.4234 5.53155C35.2008 5.72568 35.0268 5.97528 34.9155 6.26647C34.7973 6.57153 34.7347 6.93899 34.7347 7.36192V9.64988H39.4861ZM31.2007 12.6312V7.36885C31.2007 6.57153 31.3398 5.82275 31.6181 5.12943C31.8963 4.43611 32.3137 3.79825 32.8703 3.22279C33.4268 2.64734 34.0599 2.21055 34.7625 1.91935C35.4651 1.62816 36.2303 1.48256 37.0651 1.48256C37.5104 1.48256 37.9278 1.51722 38.3173 1.59349C38.7139 1.66976 39.0756 1.78069 39.4026 1.92628C39.7226 2.07188 40.0356 2.25214 40.3348 2.46014C40.6339 2.6612 40.9191 2.90387 41.2044 3.17426C41.4896 3.45159 41.74 3.74278 41.9487 4.05478C42.1644 4.35984 42.3522 4.69264 42.5053 5.04623C42.6583 5.39982 42.7766 5.77422 42.8531 6.16248C42.9296 6.55073 42.9714 6.95286 42.9714 7.37579V34.2766H39.4861V13.0957H34.7347V34.2766H31.2076V12.645L31.2007 12.6312Z" fill="#131A22"/>
<path fill-rule="evenodd" clip-rule="evenodd" d="M12.682 23.5856V4.4985C10.0663 4.6025 7.90974 5.58009 6.22622 7.43125C5.32881 8.4227 4.65401 9.46962 4.20183 10.5651C3.7566 11.6605 3.53399 12.8045 3.53399 14.0109C3.53399 16.8258 4.52184 19.1206 6.49057 20.9025C7.48538 21.7969 8.53584 22.4694 9.6489 22.92C10.6159 23.3083 11.6246 23.5302 12.689 23.5787L12.682 23.5856ZM16.209 12.3746V31.33H15.7499L13.1272 31.2676H12.682V27.0592C11.9585 27.0384 11.2489 26.9621 10.5533 26.8234C9.71847 26.664 8.90454 26.4213 8.12539 26.1024C7.33929 25.7835 6.60188 25.3883 5.89926 24.9099C5.19663 24.4384 4.52879 23.8907 3.90269 23.2667C3.28355 22.6427 2.72702 21.9771 2.23309 21.263C1.74612 20.5558 1.32872 19.8001 0.973934 19.0028V18.9889C0.64697 18.1569 0.410444 17.3319 0.243483 16.5138C0.0834801 15.6818 0 14.8567 0 14.0247C0 12.8392 0.14609 11.6952 0.43827 10.5997C0.73045 9.49735 1.16872 8.45737 1.75308 7.45899C2.33744 6.46754 3.0192 5.57315 3.81226 4.78277C4.60532 3.99238 5.50273 3.29906 6.49753 2.71667C7.49929 2.12735 8.54975 1.68362 9.64195 1.38549C10.7341 1.08737 11.8681 0.941768 13.0507 0.941768H15.7986C16.3134 0.941768 16.8143 1.00417 17.2873 1.12896C17.7604 1.25376 18.2195 1.44789 18.6439 1.69749C19.0752 1.95402 19.4648 2.25215 19.8126 2.59187C20.1604 2.93853 20.4665 3.33373 20.7309 3.77052C20.9952 4.20731 21.197 4.67183 21.3361 5.15716C21.4683 5.64248 21.5379 6.14168 21.5379 6.65473C21.5379 7.31339 21.4265 7.93044 21.2109 8.5267C21.0718 8.92189 20.877 9.29629 20.6335 9.66375C21.9274 10.1005 23.1101 10.6968 24.1883 11.4525C25.4405 12.3261 26.5536 13.4007 27.5275 14.6903C28.5015 15.973 29.2319 17.3527 29.7189 18.8156C30.2128 20.2854 30.4493 21.8315 30.4493 23.4608C30.4493 24.7643 30.2824 26.0261 29.9554 27.2394C29.6285 28.4527 29.1415 29.6245 28.4806 30.7546C27.8267 31.8916 27.0545 32.8969 26.1571 33.7844C25.2666 34.6718 24.251 35.4414 23.117 36.1001C21.9831 36.7518 20.8074 37.2441 19.59 37.563C18.3656 37.8888 17.1065 38.0552 15.7986 38.0552C14.6368 38.0552 13.5099 37.9235 12.4037 37.66C11.3046 37.3966 10.2402 37.0014 9.21063 36.4745C8.18105 35.9475 7.2419 35.3305 6.39318 34.6233C5.53751 33.9161 4.77923 33.1188 4.11139 32.2383L3.83313 31.8639L4.21574 31.5935L6.33057 30.1167L6.69232 29.8671L6.94971 30.2207C7.0958 30.4148 7.28363 30.6436 7.53407 30.9002C7.78451 31.1567 8.08365 31.4548 8.43844 31.7807C8.77932 32.0857 9.20368 32.3977 9.72543 32.7028C10.2611 33.0148 10.8872 33.3268 11.6037 33.6319C12.3133 33.9369 13.0229 34.1657 13.7255 34.3113C14.4212 34.4638 15.1168 34.5401 15.8056 34.5401C17.3638 34.5401 18.7274 34.346 19.8891 33.9646C21.037 33.5833 21.99 33.0217 22.7553 32.2729C23.5553 31.4895 24.2301 30.7268 24.7797 29.9711C25.3223 29.2293 25.7536 28.5013 26.0527 27.7872C26.3588 27.0661 26.5884 26.352 26.7345 25.6309C26.8875 24.9168 26.9641 24.1888 26.9641 23.4608C26.9641 22.4763 26.8388 21.5195 26.5954 20.6044C26.3449 19.6822 25.9762 18.7948 25.4823 17.9351C24.9884 17.0823 24.404 16.3127 23.7153 15.6332C23.0335 14.9607 22.2544 14.3714 21.3778 13.8653C20.5013 13.3661 19.5969 12.9917 18.6578 12.7421C17.8647 12.5341 17.0438 12.4093 16.2021 12.3746H16.209ZM16.209 8.93576C16.3621 8.90803 16.5012 8.86643 16.6404 8.81096C16.9047 8.70003 17.1482 8.53363 17.3778 8.30484C17.6073 8.07604 17.7743 7.83338 17.8856 7.57685C17.9969 7.32032 18.0456 7.03606 18.0456 6.731C18.0456 6.42594 17.9969 6.11394 17.8856 5.85048C17.7743 5.58702 17.6143 5.35129 17.3986 5.12943C17.183 4.90756 16.9395 4.7481 16.6682 4.6441C16.5221 4.58864 16.369 4.54704 16.209 4.5193V8.93576Z" fill="#131A22"/>
<path fill-rule="evenodd" clip-rule="evenodd" d="M118.076 42.0141C113.679 43.0194 109.324 40.4541 108.204 36.2457C111.001 37.2025 114.562 36.6755 117.839 35.067C118.869 37.6323 120.476 39.0536 122.472 39.4488C121.359 40.6899 119.85 41.612 118.076 42.021V42.0141Z" fill="#131A22"/>
<path fill-rule="evenodd" clip-rule="evenodd" d="M158.529 9.64988V7.36192C158.529 7.03606 158.473 6.72406 158.369 6.4398C158.264 6.15554 158.104 5.88515 157.896 5.62862C157.701 5.39289 157.45 5.21263 157.165 5.09476C156.866 4.96996 156.511 4.90756 156.108 4.90756C155.489 4.90756 154.939 5.11556 154.459 5.53155C154.229 5.73262 154.062 5.97528 153.951 6.26647C153.833 6.57153 153.77 6.93899 153.77 7.36192V9.64988H158.529ZM150.243 12.6312V7.36885C150.243 5.76035 150.8 4.38064 151.913 3.22279C152.469 2.64734 153.102 2.21055 153.798 1.91935C154.501 1.62816 155.273 1.48256 156.101 1.48256C156.546 1.48256 156.963 1.52416 157.353 1.59349C157.749 1.66976 158.111 1.77375 158.438 1.92628C158.758 2.07188 159.071 2.25214 159.37 2.46014C159.663 2.66814 159.955 2.90387 160.24 3.17426C160.525 3.45159 160.769 3.74278 160.984 4.04785C161.2 4.35984 161.381 4.6857 161.541 5.0393C161.694 5.39289 161.812 5.76728 161.889 6.15554C161.965 6.5438 162 6.94593 162 7.36885V34.2697H158.522V13.0888H153.763V34.2697H150.236V12.6312H150.243Z" fill="#131A22"/>
<path fill-rule="evenodd" clip-rule="evenodd" d="M140.928 34.2697H136.246V30.7546H140.928C141.478 30.7546 141.972 30.6575 142.424 30.4634C142.883 30.2692 143.294 29.9781 143.662 29.5898C144.038 29.1946 144.323 28.7717 144.504 28.3279C144.685 27.8842 144.782 27.4128 144.782 26.9136C144.782 26.6085 144.761 26.3312 144.727 26.1024C144.692 25.8736 144.643 25.6725 144.567 25.4992L137.895 11.0573C137.714 10.6344 137.575 10.2045 137.485 9.75388C137.394 9.30322 137.353 8.83176 137.353 8.3395C137.353 7.45205 137.513 6.627 137.826 5.85048C138.146 5.08089 138.619 4.37371 139.252 3.72892C139.885 3.08413 140.587 2.59187 141.367 2.27294C142.146 1.94708 142.98 1.78069 143.892 1.78069H147.474V5.25422H143.892C143.481 5.25422 143.099 5.33049 142.751 5.46915C142.403 5.61475 142.062 5.83661 141.756 6.13474C141.45 6.43287 141.22 6.75873 141.067 7.11926C140.914 7.48672 140.838 7.88884 140.838 8.3395C140.838 8.57523 140.859 8.7971 140.9 8.99123C140.942 9.18536 140.998 9.36562 141.081 9.52508L147.655 23.8491C147.878 24.2998 148.038 24.7851 148.149 25.2912C148.261 25.8043 148.309 26.3381 148.309 26.8997C148.309 27.905 148.128 28.841 147.76 29.7077C147.398 30.5674 146.848 31.3647 146.125 32.0857C145.401 32.8068 144.601 33.3545 143.732 33.715C142.862 34.0825 141.923 34.2628 140.921 34.2628L140.928 34.2697Z" fill="#131A22"/>
<path fill-rule="evenodd" clip-rule="evenodd" d="M87.5775 25.0971C88.1062 25.0763 88.6141 25.0139 89.1011 24.9168C89.7202 24.792 90.3115 24.6117 90.875 24.3621C91.4385 24.1195 92.0298 23.7451 92.6698 23.2528C93.3237 22.7467 94.0124 22.1158 94.7429 21.3531C95.4455 20.6182 95.9742 19.7446 96.3221 18.7324C96.6769 17.7063 96.8577 16.5276 96.8577 15.2034C96.8577 13.8791 96.6769 12.6034 96.3221 11.5634C95.9742 10.5373 95.4455 9.67068 94.7499 8.97042C94.0194 8.2355 93.3307 7.62538 92.6768 7.12619C92.0368 6.64087 91.4385 6.28034 90.875 6.03074C90.3115 5.78115 89.7202 5.60089 89.1011 5.47609C88.6141 5.37902 88.1062 5.32356 87.5775 5.29582V25.0971ZM91.6263 27.6901L98.7778 33.4655L99.1326 33.7566L98.8334 34.1033L97.296 35.9198L97.0108 36.2526L96.6699 35.9822L87.5706 28.7301V39.844H87.1184L84.5027 39.8648H84.0505V23.5163C83.7305 23.5024 83.4174 23.4747 83.1113 23.4331C82.6661 23.3707 82.2487 23.2736 81.8522 23.1488C81.4557 23.024 81.0035 22.8368 80.4956 22.5803C79.9878 22.3307 79.4313 22.0187 78.8191 21.6513C78.1721 21.263 77.5738 20.7638 77.0173 20.1468C76.4608 19.5366 75.9529 18.8156 75.4938 17.9905C75.0207 17.1585 74.6729 16.2988 74.4364 15.4114C74.1999 14.5239 74.0885 13.6087 74.0885 12.6728C74.0885 11.2237 74.2764 9.93414 74.659 8.80403C75.0416 7.66005 75.619 6.6894 76.3912 5.89208C77.1356 5.12249 77.8452 4.47771 78.52 3.94385C79.2087 3.40306 79.8695 2.98707 80.4956 2.682C81.1287 2.37694 81.7757 2.15508 82.4505 2.00255C83.1253 1.85002 83.814 1.77375 84.5236 1.77375H87.1393C88.3219 1.77375 89.4558 1.92628 90.555 2.23135C91.6472 2.53641 92.7046 2.98707 93.7064 3.59025C94.7151 4.19344 95.6194 4.90756 96.4264 5.72568C97.2334 6.5438 97.936 7.47285 98.5343 8.5059C99.1395 9.54588 99.5917 10.6275 99.8978 11.7368C100.204 12.853 100.35 14.0109 100.35 15.1964C100.35 18.1847 99.4734 20.8331 97.7204 23.128C96.8438 24.272 95.8421 25.2496 94.6942 26.0608C93.762 26.7194 92.7394 27.2602 91.6333 27.6832L91.6263 27.6901ZM84.0505 20.0012V5.30276C83.2714 5.35129 82.5479 5.53849 81.8661 5.85048C81.0522 6.22487 80.3009 6.7934 79.6191 7.54218C78.2486 9.05362 77.5599 10.7661 77.5599 12.6728C77.5599 13.6711 77.7338 14.5863 78.0817 15.4252C78.4295 16.2642 78.9513 17.0268 79.6539 17.7271C80.3565 18.4273 81.1148 18.975 81.9287 19.3633C82.5966 19.6822 83.3061 19.8972 84.0575 20.0081L84.0505 20.0012Z" fill="#131A22"/>
<path fill-rule="evenodd" clip-rule="evenodd" d="M118.361 18.4759C119.933 19.0652 120.726 20.8054 120.142 22.3723C119.55 23.9392 117.797 24.7296 116.232 24.1403C114.66 23.5579 113.867 21.8107 114.458 20.2438C115.042 18.6838 116.796 17.8865 118.368 18.4759H118.361Z" fill="#131A22"/>
<path fill-rule="evenodd" clip-rule="evenodd" d="M118.472 15.5084C120.789 16.3751 122.062 18.7878 121.561 21.1243C121.422 19.5574 120.323 18.0945 118.632 17.4567C116.357 16.6039 113.881 17.6023 113.095 19.6822C112.357 21.6374 113.394 23.863 115.418 24.8197C115.286 24.7781 115.154 24.7365 115.022 24.688C112.475 23.7382 111.182 20.9094 112.142 18.3719C113.102 15.8343 115.933 14.5517 118.479 15.5015L118.472 15.5084Z" fill="#131A22"/>
<path fill-rule="evenodd" clip-rule="evenodd" d="M121.373 26.7472C118.256 28.1615 114.632 27.0384 112.83 24.2582C114.5 25.6587 117.025 26.0192 119.3 24.9931C122.361 23.6064 123.808 20.2092 122.535 17.4151C121.331 14.7805 118.138 13.6157 115.216 14.6487C115.383 14.5517 115.557 14.4685 115.738 14.3853C119.161 12.8322 123.21 14.3437 124.761 17.7617C126.319 21.1798 124.803 25.208 121.38 26.7541L121.373 26.7472Z" fill="#131A22"/>
<path fill-rule="evenodd" clip-rule="evenodd" d="M110.382 13.1304C114.013 10.1491 119.23 10.3501 122.618 13.4077C119.898 12.1458 116.42 12.5549 113.762 14.725C110.194 17.6508 109.477 22.6774 112.176 25.936C114.709 29.0143 119.37 29.4303 122.89 27.0176C122.702 27.2048 122.5 27.3781 122.291 27.5514C118.298 30.8308 112.392 30.2554 109.101 26.2688C105.811 22.2891 106.388 16.3959 110.382 13.1234V13.1304Z" fill="#131A22"/>
<path fill-rule="evenodd" clip-rule="evenodd" d="M127.265 30.2138C122.507 34.0132 115.613 33.6804 111.098 29.6938C114.709 31.3647 119.084 31.5034 123.161 28.2586C127.238 25.0069 128.608 17.9281 125.116 13.8098C121.617 9.68454 115.175 9.06056 110.562 12.125C110.813 11.8893 111.07 11.6605 111.348 11.4386C116.58 7.25792 124.392 8.07604 128.789 13.2621C133.185 18.4481 132.504 26.04 127.265 30.2138Z" fill="#131A22"/>
<path fill-rule="evenodd" clip-rule="evenodd" d="M122.743 2.39081C126.89 3.38226 128.879 6.18327 127.62 10.8077C123.272 6.74486 116.462 6.99446 112.622 9.49735C114.576 4.7897 118.604 1.39936 122.743 2.39081Z" fill="#131A22"/>
<path fill-rule="evenodd" clip-rule="evenodd" d="M138.375 18.6492C138.793 22.8784 136.789 25.6656 131.989 25.9915C134.424 20.5628 131.954 14.2327 128.33 11.4317C133.429 11.7368 137.965 14.4199 138.375 18.6423V18.6492Z" fill="#131A22"/>
<path fill-rule="evenodd" clip-rule="evenodd" d="M127.411 37.9859C123.467 39.5875 120.211 38.4574 118.535 33.9785C124.441 34.755 129.839 30.5951 131.495 26.3312C132.65 31.2884 131.363 36.3843 127.411 37.9859Z" fill="#131A22"/>
<path fill-rule="evenodd" clip-rule="evenodd" d="M105.581 33.5417C102.757 30.3663 102.736 26.9344 106.423 23.863C107.648 29.6799 113.38 33.3615 117.964 33.5001C113.658 36.2387 108.406 36.7171 105.581 33.5417Z" fill="#131A22"/>
<path fill-rule="evenodd" clip-rule="evenodd" d="M102.639 11.293C105.046 7.79178 108.385 6.93899 112.26 9.76081C106.903 12.3608 104.705 18.7948 105.679 23.2598C101.964 19.7585 100.225 14.8013 102.632 11.293H102.639Z" fill="#131A22"/>
<path fill-rule="evenodd" clip-rule="evenodd" d="M132.392 4.21424C136.615 5.79501 138.827 10.3363 137.429 14.4615C135.62 12.132 132.365 10.6067 128.747 10.1491C129.311 7.44512 128.754 5.37902 127.307 3.94385C128.921 3.52786 130.695 3.58332 132.392 4.22118V4.21424Z" fill="#131A22"/>
<path fill-rule="evenodd" clip-rule="evenodd" d="M139.419 28.6885C139.175 33.1743 135.481 36.6409 131.119 36.5369C132.81 34.1241 133.297 30.5674 132.65 26.9898C135.405 26.7194 137.22 25.5755 138.159 23.7659C139.043 25.1803 139.516 26.8789 139.419 28.6885Z" fill="#131A22"/>
<path fill-rule="evenodd" clip-rule="evenodd" d="M98.6734 26.5669C96.1829 22.823 97.0595 17.8449 100.614 15.3282C100.705 18.2679 102.451 21.4086 105.115 23.8907C103.07 25.7488 102.298 27.7525 102.632 29.7562C101.08 29.153 99.6752 28.0645 98.6665 26.56L98.6734 26.5669Z" fill="#131A22"/>
<path fill-rule="evenodd" clip-rule="evenodd" d="M107.648 3.098C110.5 -0.382475 115.536 -1.0134 119.001 1.62816C116.204 2.58494 113.714 5.17103 112.121 8.4435C109.735 7.04299 107.585 6.90433 105.762 7.81258C105.881 6.14861 106.507 4.4985 107.654 3.098H107.648Z" fill="#131A22"/>
<path d="M17.8021 47.63V48.7878H13.8994V50.7153H17.3986V51.8107H13.8994V53.759H17.9273V54.9168H12.6681V47.6369H17.8021V47.63Z" fill="#131A22"/>
<path d="M27.8267 54.9099V47.63H29.7537L31.9589 52.2059L34.1642 47.63H36.0773V54.9099H34.846V49.2246L32.2929 54.2789H31.6042L29.065 49.2246V54.9099H27.8267Z" fill="#131A22"/>
<path d="M49.6219 54.9099H46.4219V47.63H49.2671C49.7611 47.63 50.1854 47.6924 50.5472 47.8103C50.9089 47.9281 51.1733 48.0876 51.3472 48.2887C51.6811 48.663 51.8481 49.086 51.8481 49.5574C51.8481 50.126 51.6672 50.5489 51.3054 50.8262C51.1733 50.9233 51.0828 50.9857 51.0341 51.0065C50.9854 51.0342 50.895 51.0689 50.7698 51.1243C51.222 51.2214 51.5837 51.4225 51.855 51.7345C52.1263 52.0465 52.2585 52.4278 52.2585 52.8854C52.2585 53.3915 52.0846 53.8422 51.7368 54.2304C51.3263 54.6811 50.6237 54.9099 49.6219 54.9099ZM49.2254 50.6529C50.1159 50.6529 50.5611 50.3478 50.5611 49.7446C50.5611 49.398 50.4498 49.1484 50.2341 48.9958C50.0185 48.8433 49.6845 48.767 49.2324 48.767H47.6532V50.6529H49.2254ZM47.6602 53.7798H49.5941C50.0463 53.7798 50.3941 53.7104 50.6376 53.5648C50.8811 53.4192 50.9994 53.1558 50.9994 52.7606C50.9994 52.1158 50.4776 51.7899 49.4411 51.7899H47.6671V53.7798H47.6602Z" fill="#131A22"/>
<path d="M63.0761 53.2528L62.3457 54.9099H61.0309L64.2518 47.63H65.5666L68.7876 54.9099H67.4728L66.7423 53.2528H63.0761ZM66.2345 52.1227L64.9057 49.1206L63.577 52.1227H66.2345Z" fill="#131A22"/>
<path d="M78.1234 54.9099V47.63H79.3547V53.7451H82.687V54.9099H78.1165H78.1234Z" fill="#131A22"/>
<path d="M93.3933 53.2528L92.6629 54.9099H91.348L94.569 47.63H95.8838L99.1047 54.9099H97.7899L97.0595 53.2528H93.3933ZM96.5516 52.1227L95.2229 49.1206L93.8942 52.1227H96.5516Z" fill="#131A22"/>
<path d="M113.498 51.367H114.729V53.856C114.041 54.6117 113.053 54.9931 111.773 54.9931C110.695 54.9931 109.79 54.6395 109.06 53.9323C108.329 53.2251 107.968 52.3307 107.968 51.2422C107.968 50.1537 108.336 49.2524 109.081 48.5313C109.825 47.8103 110.722 47.4497 111.773 47.4497C112.823 47.4497 113.7 47.7548 114.395 48.3649L113.735 49.3009C113.449 49.0582 113.164 48.8918 112.872 48.7948C112.58 48.6977 112.246 48.6561 111.863 48.6561C111.126 48.6561 110.507 48.8918 110.006 49.3702C109.505 49.8486 109.255 50.4726 109.255 51.2422C109.255 52.0118 109.498 52.6358 109.985 53.1072C110.472 53.5787 111.063 53.8075 111.759 53.8075C112.455 53.8075 113.032 53.655 113.498 53.3568V51.3531V51.367Z" fill="#131A22"/>
<path d="M129.805 47.63V48.7878H125.902V50.7153H129.401V51.8107H125.902V53.759H129.93V54.9168H124.671V47.6369H129.805V47.63Z" fill="#131A22"/>
<path d="M145.311 47.63H146.542V54.9099H145.207L141.067 49.599V54.9099H139.836V47.63H141.067L145.311 53.0656V47.63Z" fill="#131A22"/>
<path d="M159.099 48.5868C158.737 48.5868 158.445 48.663 158.216 48.8086C157.986 48.9542 157.868 49.1761 157.868 49.4673C157.868 49.7585 157.986 49.9873 158.216 50.1468C158.445 50.3062 158.932 50.4726 159.683 50.6529C160.435 50.8331 160.998 51.0897 161.374 51.4155C161.757 51.7414 161.944 52.2198 161.944 52.8576C161.944 53.4955 161.701 54.0086 161.221 54.4037C160.741 54.7989 160.108 55 159.329 55C158.188 55 157.172 54.6048 156.289 53.8214L157.061 52.8923C157.798 53.5302 158.563 53.8491 159.363 53.8491C159.76 53.8491 160.073 53.7659 160.31 53.5926C160.546 53.4192 160.657 53.1974 160.657 52.9131C160.657 52.6288 160.546 52.4139 160.33 52.2545C160.108 52.095 159.732 51.9563 159.196 51.8246C158.661 51.6929 158.25 51.575 157.972 51.471C157.694 51.3601 157.443 51.2214 157.228 51.0481C156.796 50.7222 156.581 50.223 156.581 49.5505C156.581 48.878 156.824 48.358 157.318 47.9905C157.812 47.6231 158.417 47.4428 159.141 47.4428C159.607 47.4428 160.073 47.5191 160.532 47.6716C160.991 47.8241 161.388 48.0391 161.722 48.3164L161.061 49.2454C160.845 49.0513 160.553 48.8918 160.184 48.767C159.816 48.6422 159.454 48.5798 159.092 48.5798L159.099 48.5868Z" fill="#131A22"/>
</svg>
