<svg width="234" height="80" viewBox="0 0 234 80" fill="none" xmlns="http://www.w3.org/2000/svg">
<path fill-rule="evenodd" clip-rule="evenodd" d="M88.8792 49.8368C85.7843 49.8368 82.7396 49.2014 79.7752 47.9207C78.2981 47.2853 76.9315 46.5492 75.6855 45.7222C74.4294 44.8852 73.2939 43.9574 72.279 42.9388C71.2742 41.9203 70.3497 40.7908 69.5157 39.5302C68.6817 38.2797 67.9481 36.9183 67.295 35.4459C66.6519 33.9635 66.1595 32.4609 65.8379 30.9179C65.5164 29.375 65.3556 27.8018 65.3556 26.2084C65.3556 24.615 65.5063 23.0317 65.8178 21.5089C66.1193 19.9861 66.5916 18.5138 67.2045 17.1019C67.8276 15.68 68.551 14.3488 69.3851 13.0983C70.2291 11.8478 71.1737 10.678 72.2489 9.58885C73.304 8.49971 74.3792 7.56183 75.4644 6.78531C76.5597 5.98862 77.6651 5.35329 78.7704 4.87931C79.8657 4.41541 80.8404 4.02211 81.7247 3.71957C82.619 3.41703 83.4229 3.18508 84.1363 3.03381C84.8397 2.89263 85.5933 2.7817 86.3872 2.70102C87.1911 2.63043 88.0251 2.59009 88.8792 2.59009H90.5674V7.64251H88.8792C86.2566 7.64251 83.8549 8.1064 81.6744 9.03419C79.4939 9.96198 77.5143 11.3537 75.7458 13.2294C73.9672 15.0951 72.6408 17.1221 71.7565 19.2802C70.8823 21.4383 70.4402 23.7578 70.4402 26.2185C70.4402 28.8808 70.8521 31.2608 71.6661 33.3584C72.47 35.4459 73.6858 37.2713 75.3137 38.8243C76.9516 40.4076 78.69 41.6783 80.5188 42.6464C82.1065 43.4834 83.7645 44.0986 85.4929 44.4717V13.2395H90.5875V49.8368H88.8792Z" fill="#E9F0F7"/>
<path fill-rule="evenodd" clip-rule="evenodd" d="M57.0354 14.0362V10.7082C57.0354 9.76029 56.734 8.92326 56.121 8.18708C55.8296 7.8442 55.488 7.582 55.076 7.41056C54.6439 7.22904 54.1314 7.13827 53.5486 7.13827C52.6543 7.13827 51.8604 7.44081 51.1671 8.0459C50.8455 8.32827 50.5943 8.69131 50.4336 9.11487C50.2627 9.55859 50.1723 10.0931 50.1723 10.7082V14.0362H57.0354ZM45.0676 18.3726V10.7183C45.0676 9.55859 45.2686 8.46945 45.6706 7.46098C46.0725 6.45252 46.6754 5.52473 47.4793 4.6877C48.2832 3.85067 49.1976 3.21534 50.2125 2.79178C51.2274 2.36823 52.3327 2.15645 53.5385 2.15645C54.1817 2.15645 54.7846 2.20687 55.3473 2.3178C55.92 2.42873 56.4426 2.59009 56.9149 2.80187C57.3771 3.01365 57.8293 3.27585 58.2614 3.57839C58.6934 3.87084 59.1054 4.22381 59.5174 4.61711C59.9294 5.02049 60.2912 5.44405 60.5926 5.89786C60.9041 6.34159 61.1754 6.82565 61.3965 7.33997C61.6176 7.85429 61.7884 8.39886 61.8989 8.9636C62.0095 9.52834 62.0697 10.1133 62.0697 10.7284V49.8569H57.0354V19.0483H50.1723V49.8569H45.0777V18.3928L45.0676 18.3726Z" fill="#E9F0F7"/>
<path fill-rule="evenodd" clip-rule="evenodd" d="M18.3185 34.3064V6.54328C14.5402 6.69455 11.4252 8.11649 8.99343 10.8091C7.69717 12.2512 6.72246 13.774 6.06931 15.3674C5.4262 16.9607 5.10465 18.6247 5.10465 20.3794C5.10465 24.4738 6.53154 27.8118 9.37527 30.4036C10.8122 31.7045 12.3295 32.6827 13.9373 33.3382C15.3341 33.903 16.7911 34.2257 18.3285 34.2963L18.3185 34.3064ZM23.4131 17.9995V45.5709H22.7499L18.9616 45.4802H18.3185V39.3588C17.2734 39.3285 16.2485 39.2176 15.2436 39.0159C14.0378 38.784 12.8621 38.431 11.7367 37.9671C10.6012 37.5032 9.53605 36.9284 8.52115 36.2325C7.50625 35.5468 6.54159 34.7501 5.63722 33.8425C4.7429 32.9349 3.93902 31.9667 3.22558 30.928C2.52218 29.8994 1.91927 28.8001 1.40679 27.6404V27.6202C0.934513 26.4101 0.592863 25.21 0.351698 24.02C0.120582 22.8098 0 21.6098 0 20.3996C0 18.6751 0.211019 17.0112 0.633057 15.4178C1.0551 13.8143 1.68815 12.3016 2.53223 10.8494C3.3763 9.40733 4.36106 8.1064 5.50659 6.95675C6.65212 5.8071 7.94838 4.79863 9.38532 3.95152C10.8323 3.09432 12.3496 2.4489 13.9273 2.01526C15.5049 1.58162 17.1428 1.36984 18.851 1.36984H22.8202C23.5638 1.36984 24.2873 1.46061 24.9706 1.64213C25.6539 1.82365 26.3171 2.10603 26.93 2.46907C27.5531 2.84221 28.1158 3.27585 28.6182 3.77C29.1206 4.27423 29.5628 4.84906 29.9446 5.48439C30.3265 6.11972 30.6179 6.7954 30.8188 7.50132C31.0098 8.20725 31.1102 8.93335 31.1102 9.67961C31.1102 10.6377 30.9495 11.5352 30.638 12.4025C30.437 12.9773 30.1556 13.5219 29.8039 14.0564C31.673 14.6917 33.3812 15.559 34.9387 16.6582C36.7475 17.9289 38.3552 19.492 39.762 21.3677C41.1688 23.2334 42.2239 25.2403 42.9273 27.3681C43.6407 29.5061 43.9824 31.7549 43.9824 34.1248C43.9824 36.0208 43.7412 37.8562 43.269 39.621C42.7967 41.3858 42.0933 43.0901 41.1387 44.7339C40.1941 46.3878 39.0787 47.8501 37.7825 49.1409C36.4962 50.4318 35.0292 51.5512 33.3913 52.5092C31.7533 53.4572 30.0551 54.1732 28.2966 54.6371C26.5281 55.111 24.7093 55.3531 22.8202 55.3531C21.1421 55.3531 19.5142 55.1615 17.9165 54.7782C16.3289 54.395 14.7914 53.8202 13.3042 53.0538C11.8171 52.2873 10.4605 51.3898 9.2346 50.3612C7.99863 49.3325 6.90334 48.1728 5.93868 46.892L5.53674 46.3475L6.08941 45.9542L9.14416 43.8061L9.66668 43.4431L10.0385 43.9574C10.2495 44.2398 10.5208 44.5726 10.8826 44.9457C11.2443 45.3188 11.6764 45.7525 12.1889 46.2264C12.6812 46.6702 13.2942 47.124 14.0478 47.5677C14.8216 48.0215 15.7259 48.4753 16.7609 48.9191C17.7859 49.3628 18.8108 49.6956 19.8257 49.9074C20.8306 50.1292 21.8354 50.2401 22.8302 50.2401C25.0811 50.2401 27.0506 49.9578 28.7287 49.4031C30.3867 48.8485 31.7634 48.0316 32.8687 46.9425C34.0243 45.8029 34.999 44.6936 35.7928 43.5943C36.5766 42.5153 37.1996 41.4564 37.6317 40.4177C38.0739 39.3689 38.4055 38.3302 38.6165 37.2813C38.8376 36.2426 38.9481 35.1837 38.9481 34.1248C38.9481 32.6928 38.7672 31.3011 38.4155 29.97C38.0538 28.6287 37.5212 27.3379 36.8077 26.0874C36.0943 24.847 35.2502 23.7276 34.2554 22.7393C33.2707 21.761 32.1452 20.9038 30.8791 20.1677C29.613 19.4416 28.3067 18.897 26.9501 18.5339C25.8046 18.2314 24.6189 18.0499 23.403 17.9995H23.4131ZM23.4131 12.9975C23.6341 12.9571 23.8351 12.8966 24.0361 12.8159C24.4179 12.6546 24.7696 12.4126 25.1012 12.0798C25.4328 11.747 25.674 11.394 25.8348 11.0209C25.9955 10.6477 26.0659 10.2343 26.0659 9.79054C26.0659 9.34682 25.9955 8.89301 25.8348 8.50979C25.674 8.12657 25.4429 7.78369 25.1314 7.46098C24.8199 7.13827 24.4682 6.90633 24.0763 6.75506C23.8653 6.67438 23.6442 6.61387 23.4131 6.57353V12.9975Z" fill="#E9F0F7"/>
<path fill-rule="evenodd" clip-rule="evenodd" d="M170.554 61.1114C164.203 62.5737 157.913 58.8424 156.295 52.721C160.334 54.1127 165.479 53.3462 170.212 51.0066C171.699 54.7379 174.02 56.8053 176.904 57.3801C175.297 59.1852 173.116 60.5265 170.554 61.1215V61.1114Z" fill="#E9F0F7"/>
<path fill-rule="evenodd" clip-rule="evenodd" d="M228.986 14.0362V10.7082C228.986 10.2343 228.905 9.78046 228.755 9.36699C228.604 8.95351 228.373 8.56021 228.071 8.18708C227.79 7.8442 227.428 7.582 227.016 7.41056C226.584 7.22904 226.072 7.13827 225.489 7.13827C224.595 7.13827 223.801 7.44081 223.107 8.04589C222.776 8.33835 222.535 8.69131 222.374 9.11487C222.203 9.55859 222.113 10.0931 222.113 10.7082V14.0362H228.986ZM217.018 18.3726V10.7183C217.018 8.37869 217.822 6.37184 219.43 4.6877C220.234 3.85067 221.148 3.21534 222.153 2.79178C223.168 2.36823 224.283 2.15645 225.479 2.15645C226.122 2.15645 226.725 2.21696 227.288 2.3178C227.86 2.42873 228.383 2.58 228.855 2.80187C229.317 3.01365 229.77 3.27585 230.202 3.57839C230.624 3.88093 231.046 4.22381 231.458 4.61711C231.87 5.02049 232.221 5.44405 232.533 5.88778C232.844 6.34159 233.106 6.81557 233.337 7.32988C233.558 7.8442 233.729 8.38877 233.839 8.95351C233.95 9.51826 234 10.1032 234 10.7183V49.8468H228.976V19.0382H222.103V49.8468H217.008V18.3726H217.018Z" fill="#E9F0F7"/>
<path fill-rule="evenodd" clip-rule="evenodd" d="M203.563 49.8468H196.8V44.7339H203.563C204.357 44.7339 205.07 44.5927 205.723 44.3104C206.387 44.028 206.98 43.6044 207.512 43.0397C208.055 42.4649 208.467 41.8497 208.728 41.2043C208.989 40.5589 209.13 39.8731 209.13 39.147C209.13 38.7033 209.1 38.2999 209.05 37.9671C208.999 37.6343 208.929 37.3419 208.818 37.0897L199.182 16.0834C198.921 15.4682 198.72 14.843 198.589 14.1875C198.458 13.532 198.398 12.8462 198.398 12.1302C198.398 10.8393 198.629 9.63927 199.081 8.50979C199.544 7.39039 200.227 6.36175 201.141 5.42388C202.056 4.48601 203.071 3.77 204.196 3.3061C205.322 2.83212 206.527 2.59009 207.844 2.59009H213.019V7.64251H207.844C207.251 7.64251 206.698 7.75344 206.196 7.95513C205.693 8.16691 205.201 8.48962 204.759 8.92326C204.317 9.3569 203.985 9.83088 203.764 10.3553C203.543 10.8898 203.432 11.4747 203.432 12.1302C203.432 12.4731 203.463 12.7958 203.523 13.0781C203.583 13.3605 203.664 13.6227 203.784 13.8547L213.28 34.6896C213.602 35.3451 213.833 36.051 213.993 36.7872C214.154 37.5335 214.225 38.31 214.225 39.1268C214.225 40.5891 213.963 41.9505 213.431 43.2111C212.908 44.4616 212.114 45.6214 211.069 46.6702C210.024 47.719 208.869 48.5157 207.613 49.0401C206.357 49.5746 205 49.8368 203.553 49.8368L203.563 49.8468Z" fill="#E9F0F7"/>
<path fill-rule="evenodd" clip-rule="evenodd" d="M126.501 36.5048C127.265 36.4746 127.998 36.3838 128.702 36.2426C129.596 36.0611 130.45 35.7989 131.264 35.4359C132.078 35.0829 132.932 34.5383 133.856 33.8223C134.801 33.0861 135.796 32.1684 136.851 31.0591C137.866 29.9901 138.629 28.7195 139.132 27.2471C139.644 25.7546 139.906 24.0402 139.906 22.114C139.906 20.1878 139.644 18.3323 139.132 16.8196C138.629 15.327 137.866 14.0664 136.861 13.0479C135.806 11.9789 134.811 11.0915 133.866 10.3654C132.942 9.65944 132.078 9.13504 131.264 8.77199C130.45 8.40894 129.596 8.14674 128.702 7.96522C127.998 7.82403 127.265 7.74335 126.501 7.70302V36.5048ZM132.349 40.2765L142.679 48.677L143.191 49.1006L142.759 49.6048L140.539 52.247L140.127 52.7311L139.634 52.3378L126.491 41.7892V57.9549H125.838L122.059 57.9852H121.406V34.2055C120.944 34.1854 120.492 34.145 120.05 34.0845C119.407 33.9937 118.804 33.8526 118.231 33.671C117.658 33.4895 117.005 33.2172 116.271 32.8441C115.538 32.481 114.734 32.0272 113.85 31.4927C112.915 30.928 112.051 30.2019 111.247 29.3044C110.443 28.4169 109.71 27.3681 109.047 26.168C108.363 24.9579 107.861 23.7074 107.519 22.4165C107.178 21.1257 107.017 19.7945 107.017 18.4331C107.017 16.3254 107.288 14.4497 107.841 12.8059C108.393 11.1419 109.227 9.73003 110.343 8.5703C111.418 7.4509 112.443 6.51303 113.418 5.73651C114.413 4.9499 115.367 4.34482 116.271 3.9011C117.186 3.45737 118.12 3.13466 119.095 2.9128C120.07 2.69094 121.065 2.58 122.09 2.58H125.868C127.576 2.58 129.214 2.80187 130.802 3.24559C132.379 3.68932 133.907 4.34482 135.354 5.22219C136.811 6.09955 138.117 7.13827 139.283 8.32827C140.448 9.51826 141.463 10.8696 142.327 12.3722C143.202 13.8849 143.855 15.4581 144.297 17.0717C144.739 18.6953 144.95 20.3794 144.95 22.1039C144.95 26.4504 143.684 30.3028 141.152 33.6408C139.886 35.3048 138.439 36.7267 136.781 37.9066C135.434 38.8646 133.957 39.6512 132.359 40.2664L132.349 40.2765ZM121.406 29.0926V7.7131C120.281 7.78369 119.236 8.05598 118.251 8.50979C117.075 9.05436 115.99 9.8813 115.005 10.9704C113.026 13.1689 112.031 15.6598 112.031 18.4331C112.031 19.8853 112.282 21.2165 112.785 22.4367C113.287 23.657 114.041 24.7663 115.056 25.7848C116.071 26.8034 117.166 27.6001 118.341 28.1648C119.306 28.6287 120.331 28.9413 121.416 29.1027L121.406 29.0926Z" fill="#E9F0F7"/>
<path fill-rule="evenodd" clip-rule="evenodd" d="M170.966 26.874C173.237 27.7312 174.382 30.2624 173.538 32.5415C172.684 34.8207 170.152 35.9703 167.891 35.1131C165.62 34.266 164.474 31.7247 165.328 29.4456C166.172 27.1765 168.705 26.0168 170.976 26.874H170.966Z" fill="#E9F0F7"/>
<path fill-rule="evenodd" clip-rule="evenodd" d="M171.126 22.5577C174.473 23.8183 176.311 27.3278 175.588 30.7263C175.387 28.4472 173.799 26.3193 171.357 25.3915C168.072 24.1511 164.494 25.6033 163.359 28.6287C162.294 31.4726 163.791 34.7098 166.715 36.1014C166.524 36.0409 166.333 35.9804 166.142 35.9098C162.465 34.5282 160.596 30.4137 161.982 26.7227C163.369 23.0317 167.459 21.166 171.136 22.5476L171.126 22.5577Z" fill="#E9F0F7"/>
<path fill-rule="evenodd" clip-rule="evenodd" d="M175.317 38.905C170.815 40.9622 165.58 39.3285 162.977 35.2846C165.389 37.3217 169.036 37.8461 172.322 36.3536C176.743 34.3366 178.834 29.3951 176.995 25.331C175.256 21.4988 170.644 19.8046 166.424 21.3072C166.665 21.166 166.916 21.045 167.177 20.924C172.121 18.6651 177.969 20.8635 180.21 25.8352C182.461 30.807 180.271 36.6662 175.327 38.9151L175.317 38.905Z" fill="#E9F0F7"/>
<path fill-rule="evenodd" clip-rule="evenodd" d="M159.44 19.0987C164.685 14.7623 172.222 15.0547 177.115 19.5021C173.186 17.6667 168.162 18.2617 164.324 21.4182C159.169 25.6739 158.134 32.9853 162.032 37.7251C165.69 42.2027 172.423 42.8077 177.507 39.2983C177.236 39.5706 176.944 39.8227 176.643 40.0748C170.875 44.8449 162.344 44.0078 157.591 38.2091C152.838 32.4205 153.672 23.8486 159.44 19.0886V19.0987Z" fill="#E9F0F7"/>
<path fill-rule="evenodd" clip-rule="evenodd" d="M183.828 43.9473C176.955 49.4737 166.996 48.9896 160.475 43.191C165.69 45.6214 172.011 45.8231 177.899 41.1034C183.788 36.3737 185.767 26.0773 180.723 20.087C175.668 14.0866 166.363 13.179 159.701 17.6364C160.063 17.2935 160.435 16.9607 160.837 16.638C168.393 10.557 179.678 11.747 186.028 19.2903C192.379 26.8336 191.394 37.8763 183.828 43.9473Z" fill="#E9F0F7"/>
<path fill-rule="evenodd" clip-rule="evenodd" d="M177.296 3.47754C183.285 4.91965 186.159 8.99385 184.34 15.7203C178.06 9.81071 168.222 10.1738 162.676 13.8143C165.499 6.96683 171.317 2.03543 177.296 3.47754Z" fill="#E9F0F7"/>
<path fill-rule="evenodd" clip-rule="evenodd" d="M199.875 27.1261C200.478 33.2777 197.584 37.3318 190.651 37.8057C194.168 29.9095 190.6 20.7022 185.365 16.6279C192.731 17.0717 199.282 20.9744 199.875 27.116V27.1261Z" fill="#E9F0F7"/>
<path fill-rule="evenodd" clip-rule="evenodd" d="M184.039 55.2522C178.341 57.5818 173.639 55.938 171.217 49.4233C179.748 50.5528 187.546 44.502 189.937 38.2999C191.605 45.5104 189.746 52.9227 184.039 55.2522Z" fill="#E9F0F7"/>
<path fill-rule="evenodd" clip-rule="evenodd" d="M152.506 48.788C148.427 44.1692 148.397 39.1773 153.722 34.7098C155.491 43.1708 163.771 48.5258 170.393 48.7274C164.173 52.7109 156.586 53.4067 152.506 48.788Z" fill="#E9F0F7"/>
<path fill-rule="evenodd" clip-rule="evenodd" d="M148.256 16.4263C151.733 11.3335 156.556 10.0931 162.153 14.1975C154.416 17.9793 151.24 27.3379 152.647 33.8324C147.281 28.7396 144.769 21.5291 148.246 16.4263H148.256Z" fill="#E9F0F7"/>
<path fill-rule="evenodd" clip-rule="evenodd" d="M191.233 6.12981C197.333 8.42911 200.528 15.0346 198.509 21.0349C195.896 17.6465 191.193 15.4279 185.968 14.7623C186.782 10.8293 185.978 7.82403 183.888 5.73651C186.219 5.13143 188.782 5.2121 191.233 6.13989V6.12981Z" fill="#E9F0F7"/>
<path fill-rule="evenodd" clip-rule="evenodd" d="M201.382 41.7287C201.031 48.2535 195.695 53.2958 189.395 53.1445C191.836 49.6351 192.54 44.4616 191.605 39.2579C195.585 38.8646 198.207 37.2007 199.564 34.5686C200.84 36.6258 201.523 39.0966 201.382 41.7287Z" fill="#E9F0F7"/>
<path fill-rule="evenodd" clip-rule="evenodd" d="M142.528 38.6428C138.931 33.1971 140.197 25.9563 145.332 22.2955C145.462 26.5714 147.985 31.1398 151.833 34.7501C148.879 37.4528 147.764 40.3673 148.246 43.2817C146.005 42.4044 143.975 40.8211 142.518 38.6327L142.528 38.6428Z" fill="#E9F0F7"/>
<path fill-rule="evenodd" clip-rule="evenodd" d="M155.491 4.50618C159.611 -0.556327 166.886 -1.47403 171.89 2.36823C167.851 3.75991 164.253 7.52149 161.952 12.2815C158.505 10.2444 155.4 10.0427 152.768 11.3638C152.939 8.94343 153.843 6.54328 155.501 4.50618H155.491Z" fill="#E9F0F7"/>
<path d="M25.7142 69.28V70.9641H20.077V73.7677H25.1314V75.3611H20.077V78.1948H25.8951V79.879H18.2984V69.2901H25.7142V69.28Z" fill="#E9F0F7"/>
<path d="M40.1941 79.8689V69.28H42.9775L46.1629 75.9359L49.3483 69.28H52.1116V79.8689H50.3331V71.5995L46.6453 78.9512H45.6504L41.9827 71.5995V79.8689H40.1941Z" fill="#E9F0F7"/>
<path d="M71.6761 79.8689H67.0538V69.28H71.1637C71.8771 69.28 72.4901 69.3708 73.0126 69.5422C73.5351 69.7136 73.917 69.9456 74.1682 70.238C74.6505 70.7826 74.8917 71.3978 74.8917 72.0835C74.8917 72.9105 74.6304 73.5256 74.1079 73.929C73.917 74.0702 73.7863 74.161 73.716 74.1912C73.6456 74.2316 73.515 74.282 73.3341 74.3627C73.9873 74.5039 74.5098 74.7963 74.9017 75.2501C75.2936 75.7039 75.4845 76.2586 75.4845 76.9242C75.4845 77.6604 75.2333 78.3159 74.7309 78.8806C74.138 79.5361 73.1231 79.8689 71.6761 79.8689ZM71.1034 73.6769C72.3896 73.6769 73.0327 73.2332 73.0327 72.3558C73.0327 71.8516 72.8719 71.4885 72.5604 71.2667C72.2489 71.0448 71.7666 70.9339 71.1134 70.9339H68.8324V73.6769H71.1034ZM68.8424 78.2251H71.6359C72.2891 78.2251 72.7915 78.1243 73.1432 77.9125C73.4949 77.7007 73.6657 77.3175 73.6657 76.7426C73.6657 75.8048 72.9121 75.3308 71.4149 75.3308H68.8525V78.2251H68.8424Z" fill="#E9F0F7"/>
<path d="M91.11 77.4587L90.0549 79.8689H88.1557L92.8082 69.28H94.7074L99.3598 79.8689H97.4606L96.4056 77.4587H91.11ZM95.672 75.8149L93.7527 71.4482L91.8335 75.8149H95.672Z" fill="#E9F0F7"/>
<path d="M112.845 79.8689V69.28H114.624V78.1747H119.437V79.8689H112.835H112.845Z" fill="#E9F0F7"/>
<path d="M134.901 77.4587L133.846 79.8689H131.947L136.6 69.28H138.499L143.151 79.8689H141.252L140.197 77.4587H134.901ZM139.463 75.8149L137.544 71.4482L135.625 75.8149H139.463Z" fill="#E9F0F7"/>
<path d="M163.942 74.7156H165.72V78.336C164.725 79.4353 163.299 79.9899 161.45 79.9899C159.892 79.9899 158.586 79.4756 157.531 78.447C156.476 77.4183 155.953 76.1174 155.953 74.5341C155.953 72.9508 156.486 71.6398 157.561 70.591C158.636 69.5422 159.932 69.0178 161.45 69.0178C162.967 69.0178 164.233 69.4615 165.238 70.349L164.283 71.7104C163.871 71.3574 163.459 71.1154 163.037 70.9742C162.615 70.833 162.133 70.7725 161.58 70.7725C160.515 70.7725 159.621 71.1154 158.897 71.8112C158.174 72.5071 157.812 73.4147 157.812 74.5341C157.812 75.6535 158.164 76.5611 158.867 77.2469C159.571 77.9326 160.425 78.2654 161.43 78.2654C162.434 78.2654 163.268 78.0436 163.942 77.6099V74.6955V74.7156Z" fill="#E9F0F7"/>
<path d="M187.495 69.28V70.9641H181.858V73.7677H186.913V75.3611H181.858V78.1948H187.676V79.879H180.08V69.2901H187.495V69.28Z" fill="#E9F0F7"/>
<path d="M209.894 69.28H211.672V79.8689H209.743L203.764 72.144V79.8689H201.985V69.28H203.764L209.894 77.1864V69.28Z" fill="#E9F0F7"/>
<path d="M229.81 70.6717C229.287 70.6717 228.865 70.7826 228.534 70.9944C228.202 71.2062 228.031 71.5289 228.031 71.9524C228.031 72.376 228.202 72.7088 228.534 72.9407C228.865 73.1727 229.569 73.4147 230.654 73.6769C231.739 73.9391 232.553 74.3122 233.096 74.7862C233.648 75.2602 233.92 75.956 233.92 76.8838C233.92 77.8116 233.568 78.5579 232.875 79.1327C232.181 79.7075 231.267 80 230.141 80C228.493 80 227.026 79.4252 225.75 78.2856L226.866 76.9343C227.931 77.8621 229.036 78.3259 230.192 78.3259C230.764 78.3259 231.217 78.2049 231.558 77.9528C231.9 77.7007 232.061 77.378 232.061 76.9645C232.061 76.551 231.9 76.2384 231.588 76.0065C231.267 75.7745 230.724 75.5728 229.95 75.3812C229.177 75.1896 228.584 75.0182 228.182 74.8669C227.78 74.7055 227.418 74.5038 227.107 74.2517C226.484 73.7778 226.172 73.0517 226.172 72.0734C226.172 71.0952 226.524 70.3389 227.237 69.8044C227.951 69.2699 228.825 69.0077 229.87 69.0077C230.543 69.0077 231.217 69.1186 231.88 69.3405C232.543 69.5624 233.116 69.875 233.598 70.2784L232.643 71.6297C232.332 71.3474 231.91 71.1154 231.377 70.9339C230.845 70.7524 230.322 70.6616 229.8 70.6616L229.81 70.6717Z" fill="#E9F0F7"/>
</svg>
