<svg width="43" height="43" viewBox="0 0 43 43" fill="none" xmlns="http://www.w3.org/2000/svg">
<g clip-path="url(#clip0_26_4)">
<rect width="1366" height="5248" transform="translate(-333 -77)" fill="white"/>
<rect x="-362" y="-128" width="683" height="765" fill="#D6D1C9" fill-opacity="0.5"/>
<path fill-rule="evenodd" clip-rule="evenodd" d="M-243.468 35.2416C-245.611 35.2416 -247.719 34.8048 -249.771 33.9243C-250.794 33.4875 -251.74 32.9813 -252.602 32.4128C-253.472 31.8374 -254.258 31.1995 -254.961 30.4993C-255.656 29.799 -256.296 29.0225 -256.874 28.1558C-257.451 27.2961 -257.959 26.3601 -258.411 25.3479C-258.856 24.3287 -259.197 23.2956 -259.42 22.2349C-259.643 21.1741 -259.754 20.0925 -259.754 18.997C-259.754 17.9016 -259.649 16.8131 -259.434 15.7661C-259.225 14.7192 -258.898 13.707 -258.474 12.7363C-258.042 11.7587 -257.542 10.8436 -256.964 9.98384C-256.38 9.12413 -255.726 8.3199 -254.982 7.57111C-254.251 6.82233 -253.507 6.17754 -252.755 5.64368C-251.997 5.09596 -251.232 4.65916 -250.467 4.3333C-249.708 4.01437 -249.034 3.74397 -248.421 3.53598C-247.802 3.32798 -247.246 3.16852 -246.752 3.06452C-246.265 2.96745 -245.743 2.89119 -245.193 2.83572C-244.637 2.78719 -244.06 2.75946 -243.468 2.75946H-242.3V6.23301H-243.468C-245.284 6.23301 -246.947 6.55193 -248.456 7.18978C-249.966 7.82764 -251.336 8.7844 -252.561 10.074C-253.792 11.3566 -254.71 12.7502 -255.322 14.2339C-255.928 15.7176 -256.234 17.3123 -256.234 19.004C-256.234 20.8343 -255.949 22.4706 -255.385 23.9127C-254.828 25.3479 -253.987 26.6028 -252.86 27.6705C-251.726 28.759 -250.522 29.6326 -249.256 30.2982C-248.157 30.8736 -247.009 31.2966 -245.813 31.5531V10.0809H-242.286V35.2416H-243.468Z" fill="#131A22"/>
<path fill-rule="evenodd" clip-rule="evenodd" d="M-265.514 10.6286V8.34069C-265.514 7.68896 -265.723 7.11352 -266.147 6.6074C-266.349 6.37167 -266.585 6.19141 -266.87 6.07354C-267.17 5.94874 -267.524 5.88634 -267.928 5.88634C-268.547 5.88634 -269.097 6.09434 -269.577 6.51033C-269.799 6.70446 -269.973 6.95406 -270.084 7.24525C-270.203 7.55031 -270.265 7.91776 -270.265 8.34069V10.6286H-265.514ZM-273.799 13.6099V8.34762C-273.799 7.5503 -273.66 6.80153 -273.382 6.10821C-273.104 5.41489 -272.686 4.77703 -272.13 4.20157C-271.573 3.62611 -270.94 3.18932 -270.238 2.89812C-269.535 2.60693 -268.77 2.46133 -267.935 2.46133C-267.49 2.46133 -267.072 2.496 -266.683 2.57226C-266.286 2.64853 -265.924 2.75946 -265.597 2.90505C-265.277 3.05065 -264.964 3.23092 -264.665 3.43891C-264.366 3.63998 -264.081 3.88264 -263.796 4.15304C-263.51 4.43037 -263.26 4.72156 -263.051 5.03356C-262.836 5.33862 -262.648 5.67142 -262.495 6.02501C-262.342 6.3786 -262.223 6.75299 -262.147 7.14125C-262.07 7.52951 -262.029 7.93163 -262.029 8.35455V35.2555H-265.514V14.0744H-270.265V35.2555H-273.792V13.6238L-273.799 13.6099Z" fill="#131A22"/>
<path fill-rule="evenodd" clip-rule="evenodd" d="M-292.318 24.5644V5.47728C-294.934 5.58128 -297.09 6.55885 -298.774 8.41002C-299.671 9.40147 -300.346 10.4484 -300.798 11.5438C-301.243 12.6393 -301.466 13.7832 -301.466 14.9896C-301.466 17.8045 -300.478 20.0994 -298.509 21.8813C-297.515 22.7756 -296.464 23.4482 -295.351 23.8988C-294.384 24.2871 -293.375 24.5089 -292.311 24.5575L-292.318 24.5644ZM-288.791 13.3534V32.3088H-289.25L-291.873 32.2464H-292.318V28.038C-293.041 28.0172 -293.751 27.9409 -294.447 27.8022C-295.282 27.6428 -296.095 27.4001 -296.875 27.0812C-297.661 26.7622 -298.398 26.367 -299.101 25.8887C-299.803 25.4172 -300.471 24.8695 -301.097 24.2455C-301.716 23.6215 -302.273 22.9559 -302.767 22.2418C-303.254 21.5346 -303.671 20.7789 -304.026 19.9816V19.9677C-304.353 19.1357 -304.59 18.3107 -304.757 17.4925C-304.917 16.6606 -305 15.8355 -305 15.0035C-305 13.8179 -304.854 12.6739 -304.562 11.5785C-304.27 10.4761 -303.831 9.43613 -303.247 8.43775C-302.663 7.4463 -301.981 6.55193 -301.188 5.76155C-300.395 4.97116 -299.497 4.27783 -298.502 3.69544C-297.501 3.10612 -296.45 2.66239 -295.358 2.36426C-294.266 2.06614 -293.132 1.92054 -291.949 1.92054H-289.201C-288.687 1.92054 -288.186 1.98294 -287.713 2.10774C-287.24 2.23253 -286.78 2.42666 -286.356 2.67626C-285.925 2.93279 -285.535 3.23092 -285.187 3.57064C-284.84 3.9173 -284.533 4.3125 -284.269 4.74929C-284.005 5.18609 -283.803 5.65062 -283.664 6.13594C-283.532 6.62126 -283.462 7.12045 -283.462 7.63351C-283.462 8.29217 -283.573 8.90921 -283.789 9.50547C-283.928 9.90066 -284.123 10.275 -284.367 10.6425C-283.073 11.0793 -281.89 11.6755 -280.812 12.4313C-279.559 13.3049 -278.446 14.3795 -277.472 15.6691C-276.499 16.9517 -275.768 18.3315 -275.281 19.7944C-274.787 21.2642 -274.551 22.8103 -274.551 24.4396C-274.551 25.7431 -274.718 27.0049 -275.045 28.2182C-275.372 29.4315 -275.859 30.6032 -276.519 31.7334C-277.173 32.8704 -277.946 33.8758 -278.843 34.7632C-279.733 35.6507 -280.749 36.4203 -281.883 37.0789C-283.017 37.7306 -284.193 38.2229 -285.41 38.5418C-286.634 38.8677 -287.894 39.0341 -289.201 39.0341C-290.363 39.0341 -291.49 38.9023 -292.596 38.6389C-293.695 38.3754 -294.76 37.9802 -295.789 37.4533C-296.819 36.9264 -297.758 36.3093 -298.607 35.6021C-299.462 34.895 -300.221 34.0976 -300.889 33.2171L-301.167 32.8427L-300.784 32.5723L-298.669 31.0955L-298.308 30.8459L-298.05 31.1995C-297.904 31.3936 -297.716 31.6224 -297.466 31.879C-297.215 32.1355 -296.916 32.4336 -296.562 32.7595C-296.221 33.0645 -295.796 33.3766 -295.275 33.6816C-294.739 33.9936 -294.113 34.3056 -293.396 34.6107C-292.687 34.9158 -291.977 35.1446 -291.274 35.2901C-290.579 35.4427 -289.883 35.5189 -289.194 35.5189C-287.636 35.5189 -286.273 35.3248 -285.111 34.9435C-283.963 34.5622 -283.01 34.0005 -282.245 33.2517C-281.445 32.4683 -280.77 31.7056 -280.22 30.9499C-279.678 30.2081 -279.246 29.4801 -278.947 28.7659C-278.641 28.0449 -278.412 27.3308 -278.266 26.6097C-278.112 25.8956 -278.036 25.1676 -278.036 24.4396C-278.036 23.4551 -278.161 22.4983 -278.405 21.5831C-278.655 20.661 -279.024 19.7736 -279.518 18.9138C-280.012 18.0611 -280.596 17.2915 -281.285 16.612C-281.966 15.9395 -282.746 15.3501 -283.622 14.844C-284.499 14.3448 -285.403 13.9704 -286.342 13.7208C-287.135 13.5128 -287.956 13.3881 -288.798 13.3534H-288.791ZM-288.791 9.91451C-288.638 9.88678 -288.499 9.84518 -288.36 9.78971C-288.095 9.67878 -287.852 9.5124 -287.622 9.2836C-287.393 9.05481 -287.226 8.81215 -287.114 8.55562C-287.003 8.29909 -286.954 8.01484 -286.954 7.70978C-286.954 7.40472 -287.003 7.09272 -287.114 6.82926C-287.226 6.5658 -287.386 6.33007 -287.601 6.10821C-287.817 5.88634 -288.061 5.72688 -288.332 5.62288C-288.478 5.56742 -288.631 5.52581 -288.791 5.49808V9.91451Z" fill="#131A22"/>
<path fill-rule="evenodd" clip-rule="evenodd" d="M21.5252 42.0141C17.1286 43.0194 12.7737 40.4541 11.6537 36.2457C14.4503 37.2024 18.0121 36.6755 21.2887 35.067C22.3183 37.6323 23.9252 39.0536 25.9218 39.4488C24.8087 40.6898 23.2991 41.612 21.5252 42.021V42.0141Z" fill="#131A22"/>
<path fill-rule="evenodd" clip-rule="evenodd" d="M-146.471 10.6286V8.34069C-146.471 8.01483 -146.527 7.70284 -146.631 7.41858C-146.736 7.13432 -146.896 6.86393 -147.104 6.6074C-147.299 6.37167 -147.55 6.1914 -147.835 6.07354C-148.134 5.94874 -148.489 5.88634 -148.892 5.88634C-149.511 5.88634 -150.061 6.09434 -150.541 6.51033C-150.771 6.71139 -150.938 6.95406 -151.049 7.24525C-151.167 7.55031 -151.23 7.91776 -151.23 8.34069V10.6286H-146.471ZM-154.757 13.6099V8.34762C-154.757 6.73911 -154.2 5.35942 -153.087 4.20157C-152.531 3.62611 -151.898 3.18932 -151.202 2.89812C-150.499 2.60693 -149.727 2.46133 -148.899 2.46133C-148.454 2.46133 -148.037 2.50293 -147.647 2.57226C-147.251 2.64853 -146.889 2.75252 -146.562 2.90505C-146.242 3.05065 -145.929 3.23092 -145.63 3.43891C-145.337 3.64691 -145.045 3.88264 -144.76 4.15304C-144.475 4.43037 -144.231 4.72156 -144.016 5.02662C-143.8 5.33862 -143.619 5.66448 -143.459 6.01808C-143.306 6.37167 -143.188 6.74606 -143.111 7.13432C-143.035 7.52258 -143 7.92469 -143 8.34762V35.2485H-146.478V14.0675H-151.237V35.2485H-154.764V13.6099H-154.757Z" fill="#131A22"/>
<path fill-rule="evenodd" clip-rule="evenodd" d="M-164.072 35.2485H-168.754V31.7334H-164.072C-163.522 31.7334 -163.028 31.6363 -162.576 31.4422C-162.117 31.248 -161.706 30.9568 -161.338 30.5686C-160.962 30.1734 -160.677 29.7505 -160.496 29.3067C-160.315 28.863 -160.218 28.3915 -160.218 27.8924C-160.218 27.5873 -160.239 27.31 -160.273 27.0812C-160.308 26.8524 -160.357 26.6513 -160.433 26.478L-167.105 12.0361C-167.286 11.6131 -167.425 11.1833 -167.515 10.7326C-167.606 10.282 -167.647 9.81053 -167.647 9.31827C-167.647 8.43082 -167.487 7.60578 -167.174 6.82926C-166.854 6.05967 -166.381 5.35248 -165.748 4.70769C-165.115 4.06291 -164.413 3.57064 -163.633 3.25172C-162.854 2.92585 -162.02 2.75946 -161.108 2.75946H-157.526V6.23301H-161.108C-161.519 6.23301 -161.901 6.30927 -162.249 6.44793C-162.597 6.59353 -162.938 6.81539 -163.244 7.11352C-163.55 7.41165 -163.78 7.7375 -163.933 8.09803C-164.086 8.46549 -164.162 8.86761 -164.162 9.31827C-164.162 9.554 -164.141 9.77585 -164.1 9.96998C-164.058 10.1641 -164.002 10.3444 -163.919 10.5038L-157.345 24.8279C-157.122 25.2785 -156.962 25.7639 -156.851 26.27C-156.739 26.783 -156.691 27.3169 -156.691 27.8785C-156.691 28.8838 -156.872 29.8198 -157.24 30.6864C-157.602 31.5462 -158.152 32.3435 -158.875 33.0645C-159.599 33.7856 -160.399 34.3334 -161.268 34.6939C-162.138 35.0613 -163.077 35.2416 -164.079 35.2416L-164.072 35.2485Z" fill="#131A22"/>
<path fill-rule="evenodd" clip-rule="evenodd" d="M-217.422 26.0758C-216.894 26.055 -216.386 25.9927 -215.899 25.8956C-215.28 25.7708 -214.688 25.5905 -214.125 25.3409C-213.562 25.0983 -212.97 24.7239 -212.33 24.2316C-211.676 23.7255 -210.988 23.0946 -210.257 22.3319C-209.554 21.597 -209.026 20.7234 -208.678 19.7112C-208.323 18.685 -208.142 17.5064 -208.142 16.1822C-208.142 14.8579 -208.323 13.5822 -208.678 12.5422C-209.026 11.5161 -209.554 10.6494 -210.25 9.94918C-210.981 9.21426 -211.669 8.60415 -212.323 8.10496C-212.963 7.61963 -213.562 7.25912 -214.125 7.00952C-214.688 6.75993 -215.28 6.57967 -215.899 6.45487C-216.386 6.3578 -216.894 6.30234 -217.422 6.2746V26.0758ZM-213.374 28.6689L-206.222 34.4443L-205.867 34.7355L-206.167 35.0821L-207.704 36.8987L-207.989 37.2314L-208.33 36.961L-217.429 29.7089V40.8228H-217.882L-220.497 40.8436H-220.95V24.4951C-221.27 24.4812 -221.583 24.4535 -221.889 24.4119C-222.334 24.3495 -222.751 24.2524 -223.148 24.1276C-223.544 24.0028 -223.997 23.8156 -224.504 23.5591C-225.012 23.3095 -225.569 22.9975 -226.181 22.63C-226.828 22.2418 -227.426 21.7426 -227.983 21.1255C-228.539 20.5154 -229.047 19.7944 -229.506 18.9693C-229.979 18.1373 -230.327 17.2776 -230.564 16.3902C-230.8 15.5027 -230.911 14.5875 -230.911 13.6515C-230.911 12.2025 -230.724 10.9129 -230.341 9.78278C-229.958 8.6388 -229.381 7.66818 -228.609 6.87086C-227.864 6.10127 -227.155 5.45648 -226.48 4.92262C-225.791 4.38183 -225.13 3.96584 -224.504 3.66077C-223.871 3.35571 -223.224 3.13385 -222.55 2.98132C-221.875 2.82879 -221.186 2.75252 -220.476 2.75252H-217.861C-216.678 2.75252 -215.544 2.90505 -214.445 3.21012C-213.353 3.51518 -212.295 3.96584 -211.294 4.56903C-210.285 5.17222 -209.381 5.88634 -208.574 6.70446C-207.767 7.52258 -207.064 8.45162 -206.466 9.48467C-205.86 10.5246 -205.408 11.6062 -205.102 12.7155C-204.796 13.8318 -204.65 14.9896 -204.65 16.1752C-204.65 19.1634 -205.527 21.8119 -207.28 24.1068C-208.156 25.2508 -209.158 26.2284 -210.306 27.0396C-211.238 27.6982 -212.261 28.239 -213.367 28.6619L-213.374 28.6689ZM-220.95 20.9799V6.28154C-221.729 6.33007 -222.452 6.51726 -223.134 6.82926C-223.948 7.20365 -224.699 7.77216 -225.381 8.52095C-226.751 10.0324 -227.44 11.7449 -227.44 13.6515C-227.44 14.6499 -227.266 15.5651 -226.918 16.404C-226.57 17.2429 -226.049 18.0056 -225.346 18.7059C-224.643 19.4061 -223.885 19.9538 -223.071 20.3421C-222.403 20.661 -221.694 20.8759 -220.943 20.9869L-220.95 20.9799Z" fill="#131A22"/>
<path fill-rule="evenodd" clip-rule="evenodd" d="M21.8104 18.4758C23.3826 19.0652 24.1757 20.8054 23.5913 22.3723C23 23.9392 21.2469 24.7296 19.6817 24.1403C18.1095 23.5579 17.3164 21.8107 17.9077 20.2438C18.4921 18.6838 20.2451 17.8865 21.8174 18.4758H21.8104Z" fill="#131A22"/>
<path fill-rule="evenodd" clip-rule="evenodd" d="M21.9217 15.5084C24.2383 16.3751 25.5113 18.7878 25.0105 21.1243C24.8713 19.5574 23.7722 18.0945 22.0817 17.4567C19.8069 16.6039 17.3303 17.6023 16.5442 19.6822C15.8068 21.6374 16.8433 23.8629 18.8677 24.8197C18.7356 24.7781 18.6034 24.7365 18.4712 24.688C15.925 23.7382 14.6311 20.9094 15.5912 18.3718C16.5512 15.8343 19.3825 14.5516 21.9287 15.5015L21.9217 15.5084Z" fill="#131A22"/>
<path fill-rule="evenodd" clip-rule="evenodd" d="M24.8227 26.7472C21.7061 28.1615 18.0816 27.0384 16.2798 24.2581C17.9494 25.6586 20.4747 26.0192 22.7496 24.9931C25.8105 23.6064 27.2575 20.2091 25.9844 17.4151C24.7809 14.7804 21.5878 13.6157 18.666 14.6487C18.8329 14.5516 19.0069 14.4684 19.1877 14.3853C22.6104 12.8322 26.6592 14.3437 28.2105 17.7617C29.7688 21.1798 28.2523 25.208 24.8296 26.7541L24.8227 26.7472Z" fill="#131A22"/>
<path fill-rule="evenodd" clip-rule="evenodd" d="M13.8311 13.1303C17.4625 10.1491 22.68 10.3501 26.0679 13.4077C23.3478 12.1458 19.8695 12.5549 17.2121 14.725C13.6433 17.6508 12.9268 22.6774 15.6259 25.936C18.1582 29.0143 22.8191 29.4303 26.3392 27.0176C26.1514 27.2048 25.9496 27.3781 25.7409 27.5514C21.7478 30.8308 15.8416 30.2554 12.5511 26.2688C9.26058 22.2891 9.83799 16.3959 13.8311 13.1234V13.1303Z" fill="#131A22"/>
<path fill-rule="evenodd" clip-rule="evenodd" d="M30.715 30.2138C25.9566 34.0132 19.0625 33.6804 14.5477 29.6938C18.1582 31.3647 22.5339 31.5033 26.6105 28.2586C30.6871 25.0069 32.0576 17.9281 28.5653 13.8098C25.0661 9.68453 18.6243 9.06055 14.012 12.125C14.2624 11.8893 14.5198 11.6605 14.7981 11.4386C20.0295 7.25791 27.8418 8.07603 32.2385 13.2621C36.6351 18.4481 35.9533 26.04 30.715 30.2138Z" fill="#131A22"/>
<path fill-rule="evenodd" clip-rule="evenodd" d="M26.1931 2.3908C30.3393 3.38225 32.3289 6.18326 31.0697 10.8077C26.7218 6.74485 19.9112 6.99445 16.0712 9.49734C18.026 4.78969 22.0539 1.39935 26.1931 2.3908Z" fill="#131A22"/>
<path fill-rule="evenodd" clip-rule="evenodd" d="M41.8247 18.6492C42.2421 22.8784 40.2386 25.6656 35.4385 25.9914C37.8734 20.5627 35.4038 14.2327 31.7793 11.4317C36.8786 11.7368 41.4143 14.4199 41.8247 18.6422V18.6492Z" fill="#131A22"/>
<path fill-rule="evenodd" clip-rule="evenodd" d="M30.861 37.9859C26.9166 39.5875 23.6609 38.4573 21.9843 33.9785C27.8905 34.755 33.2889 30.5951 34.9446 26.3312C36.0994 31.2884 34.8124 36.3843 30.861 37.9859Z" fill="#131A22"/>
<path fill-rule="evenodd" clip-rule="evenodd" d="M9.03101 33.5417C6.2066 30.3663 6.18574 26.9344 9.87277 23.8629C11.0971 29.6799 16.8294 33.3614 21.4139 33.5001C17.1077 36.2387 11.8554 36.7171 9.03101 33.5417Z" fill="#131A22"/>
<path fill-rule="evenodd" clip-rule="evenodd" d="M6.08835 11.293C8.49536 7.79177 11.8345 6.93898 15.7094 9.7608C10.3528 12.3608 8.15448 18.7948 9.12842 23.2598C5.41356 19.7585 3.67438 14.8012 6.08139 11.293H6.08835Z" fill="#131A22"/>
<path fill-rule="evenodd" clip-rule="evenodd" d="M35.842 4.21423C40.0647 5.795 42.2769 10.3363 40.8786 14.4615C39.0699 12.132 35.8142 10.6067 32.1967 10.1491C32.7602 7.44511 32.2037 5.37901 30.7567 3.94384C32.3706 3.52784 34.1446 3.58331 35.842 4.22117V4.21423Z" fill="#131A22"/>
<path fill-rule="evenodd" clip-rule="evenodd" d="M42.8683 28.6885C42.6248 33.1742 38.9308 36.6409 34.5689 36.5369C36.2594 34.1241 36.7464 30.5674 36.0994 26.9898C38.8543 26.7194 40.6699 25.5754 41.6091 23.7659C42.4926 25.1803 42.9656 26.8789 42.8683 28.6885Z" fill="#131A22"/>
<path fill-rule="evenodd" clip-rule="evenodd" d="M2.12305 26.5669C-0.367441 22.823 0.509075 17.8449 4.06393 15.3282C4.15437 18.2678 5.90051 21.4086 8.56491 23.8907C6.51965 25.7488 5.74747 27.7525 6.08139 29.7562C4.53005 29.153 3.12481 28.0645 2.11609 26.56L2.12305 26.5669Z" fill="#131A22"/>
<path fill-rule="evenodd" clip-rule="evenodd" d="M11.0971 3.09799C13.9494 -0.382486 18.986 -1.01341 22.4504 1.62815C19.6539 2.58493 17.1634 5.17102 15.5703 8.44349C13.1841 7.04298 11.0345 6.90432 9.21188 7.81257C9.33015 6.1486 9.95624 4.49849 11.1041 3.09799H11.0971Z" fill="#131A22"/>
<path d="M-287.198 48.6088V49.7667H-291.101V51.6941H-287.601V52.7896H-291.101V54.7378H-287.073V55.8956H-292.332V48.6158H-287.198V48.6088Z" fill="#131A22"/>
<path d="M-277.173 55.8887V48.6088H-275.246L-273.041 53.1848L-270.836 48.6088H-268.923V55.8887H-270.154V50.2035L-272.707 55.2578H-273.396L-275.935 50.2035V55.8887H-277.173Z" fill="#131A22"/>
<path d="M-255.378 55.8887H-258.578V48.6088H-255.733C-255.239 48.6088 -254.815 48.6712 -254.453 48.7891C-254.091 48.907 -253.827 49.0664 -253.653 49.2675C-253.319 49.6419 -253.152 50.0648 -253.152 50.5363C-253.152 51.1048 -253.333 51.5277 -253.695 51.805C-253.827 51.9021 -253.917 51.9645 -253.966 51.9853C-254.015 52.013 -254.105 52.0477 -254.23 52.1032C-253.778 52.2002 -253.416 52.4013 -253.145 52.7133C-252.874 53.0253 -252.741 53.4066 -252.741 53.8642C-252.741 54.3703 -252.915 54.821 -253.263 55.2093C-253.674 55.6599 -254.376 55.8887 -255.378 55.8887ZM-255.775 51.6317C-254.884 51.6317 -254.439 51.3267 -254.439 50.7235C-254.439 50.3768 -254.55 50.1272 -254.766 49.9747C-254.982 49.8221 -255.315 49.7459 -255.768 49.7459H-257.347V51.6317H-255.775ZM-257.34 54.7586H-255.406C-254.954 54.7586 -254.606 54.6893 -254.362 54.5437C-254.119 54.3981 -254.001 54.1346 -254.001 53.7394C-254.001 53.0946 -254.522 52.7688 -255.559 52.7688H-257.333V54.7586H-257.34Z" fill="#131A22"/>
<path d="M-241.924 54.2317L-242.654 55.8887H-243.969L-240.748 48.6088H-239.433L-236.212 55.8887H-237.527L-238.258 54.2317H-241.924ZM-238.766 53.1016L-240.094 50.0995L-241.423 53.1016H-238.766Z" fill="#131A22"/>
<path d="M-226.877 55.8887V48.6088H-225.645V54.7239H-222.313V55.8887H-226.884H-226.877Z" fill="#131A22"/>
<path d="M-211.607 54.2317L-212.337 55.8887H-213.652L-210.431 48.6088H-209.116L-205.895 55.8887H-207.21L-207.941 54.2317H-211.607ZM-208.448 53.1016L-209.777 50.0995L-211.106 53.1016H-208.448Z" fill="#131A22"/>
<path d="M-191.502 52.3458H-190.271V54.8349C-190.959 55.5906 -191.947 55.9719 -193.227 55.9719C-194.305 55.9719 -195.21 55.6183 -195.94 54.9111C-196.671 54.2039 -197.032 53.3096 -197.032 52.221C-197.032 51.1325 -196.664 50.2312 -195.919 49.5102C-195.175 48.7891 -194.278 48.4286 -193.227 48.4286C-192.177 48.4286 -191.3 48.7336 -190.605 49.3438L-191.265 50.2797C-191.551 50.0371 -191.836 49.8707 -192.128 49.7736C-192.42 49.6766 -192.754 49.635 -193.137 49.635C-193.874 49.635 -194.493 49.8707 -194.994 50.3491C-195.495 50.8275 -195.745 51.4515 -195.745 52.221C-195.745 52.9906 -195.502 53.6146 -195.015 54.0861C-194.528 54.5575 -193.937 54.7863 -193.241 54.7863C-192.545 54.7863 -191.968 54.6338 -191.502 54.3357V52.332V52.3458Z" fill="#131A22"/>
<path d="M-175.195 48.6088V49.7667H-179.098V51.6941H-175.599V52.7896H-179.098V54.7378H-175.07V55.8956H-180.329V48.6158H-175.195V48.6088Z" fill="#131A22"/>
<path d="M-159.689 48.6088H-158.458V55.8887H-159.793L-163.933 50.5779V55.8887H-165.164V48.6088H-163.933L-159.689 54.0445V48.6088Z" fill="#131A22"/>
<path d="M-145.901 49.5656C-146.263 49.5656 -146.555 49.6419 -146.784 49.7875C-147.014 49.9331 -147.132 50.1549 -147.132 50.4461C-147.132 50.7373 -147.014 50.9661 -146.784 51.1256C-146.555 51.2851 -146.068 51.4514 -145.317 51.6317C-144.565 51.812 -144.002 52.0685 -143.626 52.3944C-143.243 52.7202 -143.056 53.1986 -143.056 53.8365C-143.056 54.4743 -143.299 54.9874 -143.779 55.3826C-144.259 55.7778 -144.892 55.9788 -145.671 55.9788C-146.812 55.9788 -147.828 55.5837 -148.711 54.8002L-147.939 53.8712C-147.202 54.509 -146.437 54.8279 -145.637 54.8279C-145.24 54.8279 -144.927 54.7447 -144.69 54.5714C-144.454 54.3981 -144.343 54.1762 -144.343 53.8919C-144.343 53.6077 -144.454 53.3928 -144.67 53.2333C-144.892 53.0738 -145.268 52.9352 -145.804 52.8034C-146.339 52.6717 -146.75 52.5538 -147.028 52.4498C-147.306 52.3389 -147.557 52.2002 -147.772 52.0269C-148.204 51.701 -148.419 51.2019 -148.419 50.5293C-148.419 49.8568 -148.176 49.3368 -147.682 48.9694C-147.188 48.6019 -146.583 48.4216 -145.859 48.4216C-145.393 48.4216 -144.927 48.4979 -144.468 48.6504C-144.009 48.803 -143.612 49.0179 -143.278 49.2952L-143.939 50.2243C-144.155 50.0301 -144.447 49.8707 -144.816 49.7459C-145.184 49.6211 -145.546 49.5587 -145.908 49.5587L-145.901 49.5656Z" fill="#131A22"/>
</g>
<defs>
<clipPath id="clip0_26_4">
<rect width="1366" height="5248" fill="white" transform="translate(-333 -77)"/>
</clipPath>
</defs>
</svg>
